<svg width="10" height="18" viewBox="0 0 10 18" fill="none" xmlns="http://www.w3.org/2000/svg">
<path d="M3.7 18V15.85C2.81667 15.65 2.05417 15.2667 1.4125 14.7C0.770833 14.1333 0.3 13.3333 0 12.3L1.85 11.55C2.1 12.35 2.47083 12.9583 2.9625 13.375C3.45417 13.7917 4.1 14 4.9 14C5.58333 14 6.1625 13.8458 6.6375 13.5375C7.1125 13.2292 7.35 12.75 7.35 12.1C7.35 11.5167 7.16667 11.0542 6.8 10.7125C6.43333 10.3708 5.58333 9.98333 4.25 9.55C2.81667 9.1 1.83333 8.5625 1.3 7.9375C0.766667 7.3125 0.5 6.55 0.5 5.65C0.5 4.56667 0.85 3.725 1.55 3.125C2.25 2.525 2.96667 2.18333 3.7 2.1V0H5.7V2.1C6.53333 2.23333 7.22083 2.5375 7.7625 3.0125C8.30417 3.4875 8.7 4.06667 8.95 4.75L7.1 5.55C6.9 5.01667 6.61667 4.61667 6.25 4.35C5.88333 4.08333 5.38333 3.95 4.75 3.95C4.01667 3.95 3.45833 4.1125 3.075 4.4375C2.69167 4.7625 2.5 5.16667 2.5 5.65C2.5 6.2 2.75 6.63333 3.25 6.95C3.75 7.26667 4.61667 7.6 5.85 7.95C7 8.28333 7.87083 8.8125 8.4625 9.5375C9.05417 10.2625 9.35 11.1 9.35 12.05C9.35 13.2333 9 14.1333 8.3 14.75C7.6 15.3667 6.73333 15.75 5.7 15.9V18H3.7Z" fill="#FFFF00"/>
</svg>
